<?xml version="1.0" encoding="UTF-8" standalone="no"?>
<!DOCTYPE svg PUBLIC "-//W3C//DTD SVG 1.1//EN" "http://www.w3.org/Graphics/SVG/1.1/DTD/svg11.dtd">
<!-- Created with Vectornator (http://vectornator.io/) -->
<svg height="100%" stroke-miterlimit="10" style="fill-rule:nonzero;clip-rule:evenodd;stroke-linecap:round;stroke-linejoin:round;" version="1.1" viewBox="0 0 144.018 144.018" width="100%" xml:space="preserve" xmlns="http://www.w3.org/2000/svg" xmlns:vectornator="http://vectornator.io" xmlns:xlink="http://www.w3.org/1999/xlink">
<defs/>
<g id="Layer_x0020_1" vectornator:layerName="Layer_x0020_1">
<g opacity="1">
<path d="M113.394 28.4199C103.609 18.6471 90.0773 12.6014 75.1235 12.6014C60.1717 12.6014 46.6394 18.6471 36.8531 28.4184C27.0781 38.1814 21.0305 51.6719 21.0305 66.5727C21.0305 81.4764 27.0781 94.9655 36.8531 104.727C46.6379 114.5 60.1702 120.545 75.1235 120.545C90.0773 120.545 103.609 114.5 113.394 104.727C123.169 94.9655 129.218 81.4749 129.218 66.5727C129.218 51.6719 123.169 38.1814 113.394 28.4199ZM13.5159 66.5727L13.5061 66.5727C13.5061 32.5981 41.1483 4.95468 75.1235 4.95468C92.0979 4.95468 107.496 11.8634 118.654 23.012C129.823 34.1741 136.742 49.5826 136.742 66.5727L136.733 66.5727C136.733 83.5702 129.817 98.9796 118.656 110.135C107.498 121.285 92.0964 128.192 75.1235 128.192C58.1511 128.192 42.7507 121.285 31.593 110.135C20.4328 98.9811 13.5159 83.5702 13.5159 66.5727Z" fill="#ffffff" fill-rule="nonzero" opacity="1" stroke="#5f5d5c" stroke-linecap="butt" stroke-linejoin="miter" stroke-width="0.216027"/>
<path d="M75.123 124.368C43.2214 124.368 17.2683 98.442 17.2683 66.5727C17.2683 34.7043 43.2214 8.77803 75.123 8.77803C107.026 8.77803 132.981 34.7043 132.981 66.5727C132.981 98.442 107.026 124.368 75.123 124.368Z" fill="#242162" fill-rule="nonzero" opacity="1" stroke="#ffffff" stroke-linecap="butt" stroke-linejoin="miter" stroke-width="1.00019"/>
<path d="M75.123 10.0437C106.388 10.0437 131.735 35.3531 131.735 66.5727C131.735 97.7942 106.388 123.103 75.123 123.103C43.8588 123.103 18.5137 97.7942 18.5137 66.5727C18.5137 35.3531 43.8588 10.0437 75.123 10.0437ZM75.123 7.51238L75.123 7.51238C42.5359 7.51238 16.0229 34.0072 16.0229 66.5727C16.0229 99.1401 42.5359 125.634 75.123 125.634C107.712 125.634 134.226 99.1401 134.226 66.5727C134.226 34.0072 107.712 7.51238 75.123 7.51238Z" fill="#ffffff" fill-rule="nonzero" opacity="1" stroke="none"/>
<path d="M43.2684 101.994L43.2684 49.9728C43.2684 42.7257 45.5308 36.1797 50.0574 30.3344C55.8079 22.9318 63.7442 19.2286 73.8683 19.2286C83.9914 19.2286 91.889 22.8935 97.5644 30.2178C102.166 36.1419 104.467 42.7257 104.467 49.9728L104.467 101.994L79.3893 101.994L79.3893 77.3282L71.7982 77.3282L71.7982 56.6373L79.3893 56.6373L79.3893 49.3898C79.3893 47.3643 78.871 45.7478 77.8374 44.537C76.8014 43.3296 75.4393 42.7257 73.754 42.7257C72.0659 42.7257 70.7057 43.3296 69.6702 44.537C68.6336 45.7478 68.1154 47.3643 68.1154 49.3898L68.1154 101.994C68.1154 101.994 43.2684 101.994 43.2684 101.994Z" fill="#ffffff" fill-rule="nonzero" opacity="1" stroke="none"/>
</g>
</g>
</svg>
